<svg width="201" height="44" viewBox="0 0 201 44" fill="none" xmlns="http://www.w3.org/2000/svg">
<path d="M6.19822 34.5706H35.1868C35.2706 34.5838 35.3559 34.5838 35.4397 34.5706C35.5863 34.5723 35.7317 34.5447 35.8674 34.4894C36.0032 34.4341 36.1265 34.3522 36.2301 34.2485C36.3338 34.1449 36.4157 34.0216 36.471 33.8858C36.5263 33.7501 36.5539 33.6046 36.5522 33.4581V1.85252C36.5539 1.70595 36.5263 1.56052 36.471 1.42478C36.4157 1.28904 36.3338 1.16572 36.2301 1.06208C36.1265 0.958429 36.0032 0.876545 35.8674 0.821236C35.7317 0.765927 35.5863 0.738308 35.4397 0.740003H6.21086C4.78018 0.739987 3.40772 1.30659 2.39371 2.31586C1.3797 3.32513 0.806673 4.69492 0.799988 6.12559C0.799988 6.12559 0.799988 6.20144 0.799988 6.23937C0.799988 8.99538 0.799988 34.2672 0.799988 37.5794C0.799988 37.6553 0.799988 37.7185 0.799988 37.7817C0.803459 39.1531 1.32755 40.4721 2.2663 41.4718C3.20505 42.4716 4.4884 43.0776 5.85688 43.1673H35.4018C35.5479 43.1673 35.6925 43.1385 35.8275 43.0826C35.9625 43.0267 36.0851 42.9448 36.1884 42.8415C36.2917 42.7382 36.3737 42.6155 36.4296 42.4805C36.4855 42.3456 36.5143 42.2009 36.5143 42.0548V37.7944C36.4849 37.5181 36.3543 37.2625 36.1478 37.0768C35.9412 36.8911 35.6732 36.7883 35.3954 36.7883C35.1176 36.7883 34.8497 36.8911 34.6431 37.0768C34.4366 37.2625 34.306 37.5181 34.2766 37.7944V40.8917H6.19822C5.38362 40.8891 4.60149 40.5721 4.01498 40.0068C3.42847 39.4415 3.08288 38.6715 3.0503 37.8576V37.5415C3.09855 36.7388 3.451 35.9846 4.03587 35.4326C4.62073 34.8806 5.39401 34.5724 6.19822 34.5706ZM11.9378 5.82218H26.0086L26.9062 12.1433L23.1135 11.2457H18.9416L18.4991 11.6882V13.7994L18.9416 14.2545H21.2804L23.8088 13.7109L24.6938 20.032L20.9011 19.1344H18.891L18.4738 19.5516V25.8727L19.245 28.1863H11.9378L12.709 25.8727V8.1357L11.9378 5.82218Z" fill="black"/>
<path fill-rule="evenodd" clip-rule="evenodd" d="M46.5649 11.0251C46.5658 11.0857 46.6877 11.5481 46.8357 12.0525C47.0895 12.9178 47.1047 13.3901 47.1047 20.3957C47.1047 27.4014 47.0895 27.8737 46.8357 28.739C46.6877 29.2434 46.5658 29.7051 46.5649 29.7647C46.5639 29.8243 47.9645 29.8732 49.6774 29.8732C51.3903 29.8732 52.7917 29.8528 52.7917 29.8281C52.7917 29.8032 52.6089 29.2049 52.3855 28.4986C52.0028 27.2888 51.9793 27.0837 51.9793 24.9554C51.9793 23.3914 52.0292 22.643 52.1417 22.5228C52.4146 22.2312 53.7516 22.3215 54.7991 22.7022L55.7706 23.0554V20.17C55.7706 18.5832 55.7508 17.2848 55.7266 17.2848C55.7023 17.2848 55.2348 17.4476 54.6873 17.6466C53.627 18.0319 52.4105 18.1219 52.1417 17.8347C52.0455 17.7318 51.9793 17.2368 51.9793 16.6202C51.9793 15.8046 52.0256 15.5605 52.1935 15.4916C52.3113 15.4433 53.3317 15.4038 54.461 15.4038C56.3117 15.4038 56.6189 15.441 57.5728 15.7804C58.1549 15.9876 58.6566 16.13 58.6877 16.0969C58.7187 16.0637 58.3917 14.9013 57.9612 13.5137L57.1781 10.9906L51.8705 10.9527C48.9515 10.932 46.5639 10.9646 46.5649 11.0251ZM61.354 12.6928L59.6973 14.4675V20.3999V26.3326L61.3579 28.1029L63.0186 29.8732H66.9454H70.8722L72.5289 28.0987L74.1856 26.324V20.4141V14.5041L72.5354 12.7112L70.8854 10.9183H66.9479H63.0107L61.354 12.6928ZM77.1341 10.9989C77.0927 11.0433 77.2349 11.5682 77.45 12.1657L77.8415 13.2518V20.3995V27.5471L77.5084 28.6678C77.3253 29.2842 77.1945 29.8088 77.218 29.8339C77.2412 29.8587 78.5127 29.8616 80.0433 29.8401L82.8261 29.8009L82.5021 28.7157C82.1907 27.6727 82.1782 27.467 82.1816 23.4343C82.1846 19.7684 82.2084 19.293 82.3701 19.6723C82.4719 19.911 83.7711 22.2876 85.257 24.9536L87.9588 29.8009L89.738 29.8412L91.5173 29.8816V21.4355C91.5173 13.3661 91.5294 12.9518 91.7881 12.1482C91.9371 11.6856 92.0589 11.2195 92.0589 11.1126C92.0589 10.9565 91.5275 10.9183 89.3509 10.9183C87.213 10.9183 86.6428 10.9581 86.6428 11.1072C86.6428 11.2111 86.7621 11.6833 86.9079 12.1563C87.1336 12.8883 87.179 13.5053 87.2126 16.3009C87.2468 19.1425 87.2273 19.5328 87.0685 19.1948C86.9675 18.9799 85.9058 17.0299 84.7091 14.8612L82.5334 10.9183H79.8715C78.4075 10.9183 77.1757 10.9546 77.1341 10.9989ZM94.8637 11.5332C94.1717 13.5507 93.3587 16.2621 93.4246 16.3326C93.4671 16.378 94.0455 16.2183 94.7099 15.9777C95.727 15.6093 96.0891 15.5465 97.0012 15.5805L98.0844 15.6208L98.12 21.3363L98.1555 27.0517L97.7477 28.3211C97.5233 29.0192 97.3397 29.654 97.3397 29.7319C97.3397 29.82 98.5876 29.8732 100.657 29.8732C102.745 29.8732 103.975 29.8204 103.975 29.7307C103.975 29.6523 103.791 28.998 103.567 28.2765L103.159 26.965L103.194 21.2929L103.23 15.6208L104.313 15.5805C105.225 15.5465 105.587 15.6093 106.604 15.9777C107.269 16.2183 107.842 16.3837 107.878 16.3452C107.938 16.2804 106.951 12.9382 106.456 11.5332L106.24 10.9183H100.657H95.0747L94.8637 11.5332ZM109.255 11.1126C109.255 11.2195 109.377 11.6856 109.526 12.1482C109.783 12.9465 109.797 13.3661 109.797 20.3959C109.797 27.3871 109.782 27.8505 109.529 28.6571C109.382 29.127 109.26 29.5929 109.259 29.6924C109.256 29.8318 109.953 29.8732 112.302 29.8732C113.978 29.8732 115.348 29.8569 115.346 29.837C115.345 29.8172 115.193 29.28 115.008 28.6433C114.706 27.604 114.671 27.237 114.671 25.0514V22.6171L115.437 21.7596C115.858 21.2881 116.27 20.9022 116.352 20.9022C116.597 20.9022 118.565 27.3285 118.715 28.6194C118.787 29.2429 118.873 29.7813 118.906 29.8158C118.938 29.8504 120.373 29.8612 122.094 29.8398L125.223 29.8009L124.513 28.4986C124.122 27.7824 123.49 26.2848 123.108 25.1707C122.726 24.0565 122.07 22.1357 121.649 20.9022C121.229 19.6687 120.738 18.242 120.557 17.7318L120.229 16.804L122.63 14.2159C123.95 12.7924 125.048 11.5719 125.071 11.5036C125.093 11.4353 124.973 11.2757 124.804 11.1488C124.547 10.9569 124.05 10.9183 121.829 10.9183H119.162L118.914 11.7056C118.699 12.3881 118.4 12.7803 116.669 14.6551L114.671 16.8175V15.0616C114.672 13.6116 114.728 13.1166 114.994 12.2205C115.172 11.6237 115.29 11.0866 115.257 11.0268C115.224 10.9672 113.86 10.9183 112.226 10.9183C109.83 10.9183 109.255 10.9559 109.255 11.1126ZM126.587 11.111C126.587 11.2188 126.709 11.6856 126.858 12.1482C127.115 12.9465 127.129 13.3661 127.129 20.3959C127.129 27.3871 127.114 27.8505 126.861 28.6571C126.714 29.127 126.592 29.5929 126.59 29.6924C126.588 29.8342 127.77 29.8732 132.06 29.8732H137.532L137.743 29.2583C138.261 27.7461 139.267 24.3712 139.216 24.3168C139.185 24.2837 138.543 24.4786 137.789 24.7497C136.477 25.2219 136.333 25.243 134.435 25.243C131.992 25.243 132.003 25.251 132.003 23.5604C132.003 22.8563 132.066 22.3394 132.166 22.2334C132.439 21.9418 133.776 22.0321 134.823 22.4128L135.795 22.766V19.8806C135.795 18.2938 135.775 16.9954 135.751 16.9954C135.726 16.9954 135.259 17.1582 134.711 17.3572C133.595 17.7627 132.398 17.8363 132.148 17.5145C132.053 17.3916 132.006 16.9446 132.03 16.3931L132.071 15.4761L134.294 15.4362C136.387 15.3987 136.58 15.4187 137.586 15.7768C138.174 15.986 138.681 16.1297 138.712 16.0962C138.744 16.0627 138.415 14.9003 137.981 13.5129L137.193 10.9906L131.89 10.9527C127.501 10.9215 126.587 10.9487 126.587 11.111ZM140.914 10.9939C140.875 11.0355 140.987 11.5379 141.163 12.1101C141.48 13.1471 141.482 13.1772 141.482 20.3907C141.482 27.6163 141.481 27.6326 141.158 28.7518L140.834 29.8732H146.362H151.89L152.711 27.214C153.163 25.7516 153.533 24.4861 153.533 24.402C153.533 24.3173 152.918 24.4705 152.152 24.7461C150.827 25.2229 150.69 25.243 148.776 25.243C146.33 25.243 146.356 25.2605 146.356 23.6528C146.356 23.0285 146.393 22.4145 146.438 22.2886C146.566 21.9323 147.902 21.9917 149.044 22.4047C149.569 22.5944 150.032 22.7137 150.073 22.6699C150.151 22.587 150.181 16.9954 150.103 16.9954C150.079 16.9954 149.612 17.1582 149.064 17.3572C147.948 17.7627 146.751 17.8363 146.501 17.5145C146.406 17.3916 146.359 16.9446 146.383 16.3931L146.424 15.4761L148.659 15.4366C150.746 15.3997 150.96 15.4213 151.898 15.7622C152.451 15.963 152.949 16.1273 153.004 16.1273C153.06 16.1273 152.739 14.9552 152.292 13.5228L151.478 10.9183H146.232C143.346 10.9183 140.953 10.9523 140.914 10.9939ZM155.252 11.0268C155.221 11.0864 155.335 11.5911 155.506 12.1482C155.812 13.1471 155.816 13.2597 155.825 20.3444C155.834 27.222 155.822 27.569 155.553 28.5004C155.399 29.0354 155.24 29.5631 155.2 29.6731C155.14 29.8399 155.65 29.8732 158.257 29.8732C159.978 29.8732 161.386 29.8195 161.386 29.7538C161.386 29.6882 161.232 29.1511 161.044 28.5601C160.734 27.5868 160.705 27.302 160.739 25.5324L160.777 23.579L163.43 23.5398L166.083 23.5007L167.796 21.6094L169.51 19.7183V17.0886V14.4589L167.85 12.6886L166.189 10.9183H160.749C157.757 10.9183 155.283 10.9672 155.252 11.0268ZM171.272 11.0251C171.273 11.0857 171.395 11.5481 171.543 12.0525C171.797 12.9178 171.812 13.3901 171.812 20.3957C171.812 27.4014 171.797 27.8737 171.543 28.739C171.395 29.2434 171.273 29.7058 171.272 29.7663C171.271 29.8269 173.748 29.8595 176.777 29.8386L182.282 29.8009L183.138 27.0614C183.609 25.5548 183.978 24.3045 183.958 24.2831C183.938 24.2615 183.294 24.4689 182.528 24.7435C181.19 25.2233 181.056 25.243 179.135 25.243C176.673 25.243 176.687 25.2524 176.687 23.5604C176.687 22.8563 176.75 22.3394 176.849 22.2334C177.122 21.9418 178.459 22.0321 179.506 22.4128L180.478 22.766V19.8806C180.478 18.2938 180.456 16.9954 180.43 16.9954C180.404 16.9954 179.962 17.1582 179.449 17.3572C178.387 17.769 177.09 17.847 176.832 17.5145C176.736 17.3916 176.689 16.9446 176.714 16.3931L176.754 15.4761L178.978 15.4362C181.07 15.3987 181.264 15.4187 182.27 15.7768C182.858 15.986 183.364 16.13 183.395 16.0969C183.426 16.0637 183.099 14.9013 182.669 13.5137L181.885 10.9906L176.578 10.9527C173.659 10.932 171.271 10.9646 171.272 11.0251ZM185.624 11.0991C185.625 11.1987 185.746 11.7032 185.894 12.2205C186.147 13.1052 186.163 13.594 186.164 20.4578C186.165 27.5707 186.158 27.7793 185.869 28.7382C185.705 29.2793 185.605 29.7572 185.645 29.8004C185.686 29.8436 187.06 29.8614 188.699 29.8399L191.679 29.8009L191.359 28.6514C191.097 27.7083 191.04 27.1745 191.04 25.678C191.04 24.4522 191.093 23.7969 191.202 23.6803C191.454 23.411 192.589 23.464 192.907 23.7599C193.078 23.9189 193.515 25.1025 194.084 26.9432L194.989 29.8732H197.894H200.8L200.43 29.1859C200.226 28.8078 199.915 28.2506 199.74 27.9475C199.456 27.4562 197.674 22.5365 197.674 22.2426C197.674 22.1781 198.162 21.6074 198.758 20.9745L199.841 19.8238V17.1413V14.4589L198.18 12.6886L196.519 10.9183H191.071C186.803 10.9183 185.624 10.9575 185.624 11.0991ZM65.8043 15.5332C64.9181 16.0377 64.8547 16.3523 64.8484 20.2823C64.8417 24.3462 64.8886 24.5642 65.8777 25.0778C67.0166 25.669 68.2551 25.3074 68.7676 24.2339C69.018 23.7094 69.0402 23.385 69.0402 20.2511C69.0402 17.1834 69.0142 16.7848 68.7827 16.2997C68.319 15.3287 66.8347 14.9466 65.8043 15.5332ZM160.768 15.5935C160.73 15.6978 160.717 16.5281 160.738 17.4383L160.777 19.0935L161.858 19.1363C163.259 19.1919 163.843 18.9332 164.227 18.0866C164.561 17.3498 164.565 17.1511 164.266 16.4797C163.919 15.7026 163.27 15.4038 161.929 15.4038C161.152 15.4038 160.816 15.4586 160.768 15.5935ZM191.098 15.5935C191.061 15.6978 191.047 16.5281 191.069 17.4383L191.107 19.0935L192.188 19.1363C193.553 19.1904 194.194 18.9204 194.57 18.1319C194.713 17.8315 194.831 17.4226 194.831 17.2232C194.831 16.6088 194.422 15.89 193.929 15.6389C193.338 15.3378 191.202 15.3035 191.098 15.5935Z" fill="black"/>
</svg>
