<?xml version="1.0" standalone="no"?>
<!DOCTYPE svg PUBLIC "-//W3C//DTD SVG 20010904//EN"
 "http://www.w3.org/TR/2001/REC-SVG-20010904/DTD/svg10.dtd">
<svg version="1.0" xmlns="http://www.w3.org/2000/svg"
 width="700.000000pt" height="700.000000pt" viewBox="0 0 700.000000 700.000000"
 preserveAspectRatio="xMidYMid meet">
<metadata>
Created by potrace 1.14, written by Peter Selinger 2001-2017
</metadata>
<g transform="translate(0.000000,700.000000) scale(0.100000,-0.100000)"
fill="#000000" stroke="none">
<path d="M1465 6848 c-147 -12 -250 -46 -377 -123 -141 -85 -253 -210 -323
-360 -71 -151 -78 -195 -82 -485 -5 -453 -3 -4944 2 -4980 33 -212 105 -357
250 -506 110 -113 261 -193 431 -229 73 -16 263 -17 2424 -19 1329 -1 2364 3
2390 8 58 11 95 40 121 93 20 42 21 58 21 411 0 254 -4 376 -12 397 -14 36
-55 81 -91 99 -34 17 -117 17 -149 1 -34 -18 -77 -64 -89 -98 -7 -17 -11 -130
-11 -293 l0 -264 -2239 0 c-1448 0 -2257 4 -2292 10 -84 16 -190 73 -258 140
-170 167 -194 452 -54 638 38 50 122 132 136 132 5 0 21 8 35 18 15 10 52 27
82 38 53 18 98 19 1245 22 3972 8 3555 5 3600 28 24 13 51 39 69 67 l28 46 0
2493 c-1 1371 -1 2516 -1 2544 -1 66 -43 133 -102 159 -39 18 -131 19 -2357
19 -1274 1 -2353 -2 -2397 -6z m3200 -828 c1 -8 6 -40 10 -70 4 -30 9 -64 10
-75 2 -10 9 -60 16 -110 6 -49 13 -97 14 -107 2 -9 6 -38 10 -65 4 -26 9 -59
11 -73 2 -14 11 -77 19 -140 9 -63 18 -128 21 -145 13 -94 24 -171 24 -181 0
-7 -116 17 -292 58 l-293 70 -338 1 -338 2 -36 -37 -37 -38 0 -165 -1 -166 36
-35 37 -36 192 1 c105 1 212 6 238 12 26 6 54 12 62 14 8 1 35 8 60 15 25 7
52 14 60 15 8 2 46 11 83 20 37 8 72 13 76 11 5 -3 11 -32 15 -63 9 -82 15
-123 21 -163 3 -19 7 -51 10 -70 3 -19 14 -98 25 -176 11 -77 22 -165 26 -195
3 -30 8 -56 9 -59 2 -3 6 -33 10 -65 4 -33 8 -70 10 -81 2 -12 7 -48 10 -79
l8 -58 -29 8 c-16 4 -38 9 -49 11 -21 4 -124 28 -300 69 -223 53 -235 55 -386
55 l-150 0 -34 -34 -34 -35 0 -499 -1 -499 60 -178 c33 -98 57 -181 54 -184
-6 -7 -1135 -8 -1139 -1 -2 3 24 84 56 180 l59 175 1 1410 0 1410 -56 166
c-30 92 -58 174 -61 183 -6 14 91 16 1106 13 981 -2 1113 -4 1115 -17z"/>
</g>
</svg>
